<svg style="height: 512px; width: 512px;" xmlns="http://www.w3.org/2000/svg" viewBox="0 0 512 512"><path d="M0 0h512v512H0z" fill="#000000" fill-opacity="0.01"></path><g class="" style="" transform="translate(0,0)"><g><path d="M146.063 25.656C115.203 25.73 85.507 37.708 60.969 61.969C3.285 119 12.986 194.422 63.905 245.343C75.947 257.383 111.029 280.733 142.655 300.78L179.593 263.813C156.529 245.483 133.328 226.578 125.218 218.469C87.025 180.276 82.614 142.509 111.778 113.343C140.945 84.177 178.26 88.733 216.904 127.373C224.994 135.463 243.836 158.421 262.124 181.28L299.154 144.25C279.109 112.627 255.819 77.51 243.779 65.47C213.094 38.987 178.911 25.578 146.061 25.656Z" class="" fill="#c9c9c9" fill-opacity="1"></path><path d="M309.375 160.47L273.845 196C286.948 212.54 298.37 227.2 303.345 233.656L334.875 202.126C334.875 202.126 323.925 183.812 309.375 160.469Z" class="" fill="#4a90e2" fill-opacity="1"></path><path d="M363.5 193.594C331.537 267.537 273.325 329.244 196.187 362.814C292.857 351.956 363.047 276.051 363.5 193.594Z" class="selected" fill="#fff" fill-opacity="1"></path><path d="M421.938 193.594C378.812 293.36 300.23 376.616 196.155 421.906C326.581 407.258 421.322 304.846 421.935 193.594Z" class="" fill="#fff" fill-opacity="1"></path><path d="M494.468 193.594C437.49 325.414 333.7 435.407 196.19 495.25C368.52 475.894 493.66 340.59 494.47 193.594Z" class="" fill="#fff" fill-opacity="1"></path><path d="M194.345 275.5L158.907 310.938C182.255 325.49 200.563 336.438 200.563 336.438L232.095 304.906C225.652 299.943 210.952 288.576 194.345 275.5Z" class="" fill="#d0021b" fill-opacity="1"></path></g></g></svg>